# xmcd
#
# Track frame offsets:
#	182
#	11757
#	25770
#	36707
#	46370
#	59187
#	72977
#	83195
#	94637
#	111515
#	120995
#	133325
#	149050
#	164655
#	180045
#	191622
#
# Disc length: 2700 seconds
#
# Revision: 0
# Processed by: cddbd v1.5.2PL0 Copyright (c) Steve Scherf et al.
# Submitted via: EasyCDDAExtractor 10.2.0.1
#
DISCID=f00a8a10
DTITLE=The Good Shepherd Quartet - Keeping It Simple
DYEAR=1996
DGENRE=Gospel
TTITLE0=Shake The Master's Hand
TTITLE1=Just Let Me Slip Away
TTITLE2=Since I Put My Feet On Solid Ground
TTITLE3=Sailing On The Waves
TTITLE4=Ive Heard Of A Rock
TTITLE5=We Shall Understand
TTITLE6=He Made A Way For me
TTITLE7=Give Them Their Flowers
TTITLE8=Rock Of All Ages
TTITLE9=Guided By Love
TTITLE10=Living With Jesus
TTITLE11=Not Far Not Far
TTITLE12=His Hand Reached Down
TTITLE13=Now The Old Time Religion Is Mine
TTITLE14=A Cloud Received Them From Their Sight
TTITLE15=I Am Only Rehersing
EXTD=
EXTT0=
EXTT1=
EXTT2=
EXTT3=
EXTT4=
EXTT5=
EXTT6=
EXTT7=
EXTT8=
EXTT9=
EXTT10=
EXTT11=
EXTT12=
EXTT13=
EXTT14=
EXTT15=
PLAYORDER=
